<svg width="760.4775634765625px" height="212.82247314453124px" xmlns="http://www.w3.org/2000/svg" viewBox="-130.23878173828126 -31.411236572265622 760.4775634765625 212.82247314453124" style="background: rgba(0, 0, 0, 0);" preserveAspectRatio="xMidYMid"><defs><filter id="editing-hole" x="-100%" y="-100%" width="300%" height="300%"><feFlood flood-color="#000" result="black"></feFlood><feMorphology operator="dilate" radius="2" in="SourceGraphic" result="erode"></feMorphology><feGaussianBlur in="erode" stdDeviation="4" result="blur"></feGaussianBlur><feOffset in="blur" dx="2" dy="2" result="offset"></feOffset><feComposite operator="atop" in="offset" in2="black" result="merge"></feComposite><feComposite operator="in" in="merge" in2="SourceGraphic" result="inner-shadow"></feComposite></filter></defs><g filter="url(#editing-hole)"><g transform="translate(-20.060001254081726, 116.48500061035156)"><path d="M13.95-82.03L43.71-82.03L43.71-82.03Q46.05-82.03 48.43-81.86L48.43-81.86L48.43-81.86Q50.80-81.68 52.73-80.86L52.73-80.86L52.73-80.86Q54.67-80.04 55.87-78.37L55.87-78.37L55.87-78.37Q57.07-76.70 57.07-73.71L57.07-73.71L57.07-73.71Q57.07-70.78 55.87-69.11L55.87-69.11L55.87-69.11Q54.67-67.44 52.73-66.62L52.73-66.62L52.73-66.62Q50.80-65.80 48.43-65.60L48.43-65.60L48.43-65.60Q46.05-65.39 43.71-65.39L43.71-65.39L37.73-65.39L37.73-13.36L37.73-13.36Q37.73-10.84 37.59-8.44L37.59-8.44L37.59-8.44Q37.44-6.04 36.62-4.16L36.62-4.16L36.62-4.16Q35.80-2.29 33.98-1.14L33.98-1.14L33.98-1.14Q32.17 0 28.83 0L28.83 0L28.83 0Q25.49 0 23.67-1.14L23.67-1.14L23.67-1.14Q21.86-2.29 21.04-4.16L21.04-4.16L21.04-4.16Q20.21-6.04 20.07-8.44L20.07-8.44L20.07-8.44Q19.92-10.84 19.92-13.36L19.92-13.36L19.92-65.39L13.95-65.39L13.95-65.39Q11.60-65.39 9.23-65.60L9.23-65.60L9.23-65.60Q6.86-65.80 4.92-66.62L4.92-66.62L4.92-66.62Q2.99-67.44 1.79-69.11L1.79-69.11L1.79-69.11Q0.59-70.78 0.59-73.71L0.59-73.71L0.59-73.71Q0.59-76.70 1.79-78.37L1.79-78.37L1.79-78.37Q2.99-80.04 4.92-80.86L4.92-80.86L4.92-80.86Q6.86-81.68 9.23-81.86L9.23-81.86L9.23-81.86Q11.60-82.03 13.95-82.03L13.95-82.03ZM112.38-37.03L112.38-33.40L112.38-33.40Q112.38-32.46 112.27-31.20L112.27-31.20L112.27-31.20Q112.15-29.94 111.36-28.80L111.36-28.80L111.36-28.80Q110.57-27.66 108.87-26.84L108.87-26.84L108.87-26.84Q107.17-26.02 104.06-26.02L104.06-26.02L80.74-26.02L80.74-20.39L80.74-20.39Q80.74-18.98 81.09-17.46L81.09-17.46L81.09-17.46Q81.45-15.94 82.29-14.65L82.29-14.65L82.29-14.65Q83.14-13.36 84.55-12.54L84.55-12.54L84.55-12.54Q85.96-11.72 88.01-11.72L88.01-11.72L88.01-11.72Q90.35-11.72 91.61-12.28L91.61-12.28L91.61-12.28Q92.87-12.83 93.60-13.65L93.60-13.65L93.60-13.65Q94.34-14.47 94.92-15.41L94.92-15.41L94.92-15.41Q95.51-16.35 96.47-17.17L96.47-17.17L96.47-17.17Q97.44-17.99 99.17-18.54L99.17-18.54L99.17-18.54Q100.90-19.10 103.95-19.10L103.95-19.10L103.95-19.10Q105.41-19.10 106.79-18.87L106.79-18.87L106.79-18.87Q108.16-18.63 109.22-17.99L109.22-17.99L109.22-17.99Q110.27-17.34 110.92-16.20L110.92-16.20L110.92-16.20Q111.56-15.06 111.56-13.24L111.56-13.24L111.56-13.24Q111.56-9.43 109.16-6.88L109.16-6.88L109.16-6.88Q106.76-4.34 103.13-2.81L103.13-2.81L103.13-2.81Q99.49-1.29 95.24-0.64L95.24-0.64L95.24-0.64Q91.00 0 87.30 0L87.30 0L87.30 0Q82.44-0.06 78.05-1.23L78.05-1.23L78.05-1.23Q73.65-2.40 70.28-4.98L70.28-4.98L70.28-4.98Q66.91-7.56 64.92-11.72L64.92-11.72L64.92-11.72Q62.93-15.88 62.93-21.91L62.93-21.91L62.93-35.63L62.93-35.63Q62.93-41.19 64.25-45.06L64.25-45.06L64.25-45.06Q65.57-48.93 67.68-51.50L67.68-51.50L67.68-51.50Q69.79-54.08 72.42-55.52L72.42-55.52L72.42-55.52Q75.06-56.95 77.75-57.66L77.75-57.66L77.75-57.66Q80.45-58.36 82.88-58.54L82.88-58.54L82.88-58.54Q85.31-58.71 87.07-58.71L87.07-58.71L87.07-58.71Q92.99-58.71 97.18-57.66L97.18-57.66L97.18-57.66Q101.37-56.60 104.18-54.90L104.18-54.90L104.18-54.90Q106.99-53.20 108.63-50.98L108.63-50.98L108.63-50.98Q110.27-48.75 111.09-46.38L111.09-46.38L111.09-46.38Q111.91-44.00 112.15-41.57L112.15-41.57L112.15-41.57Q112.38-39.14 112.38-37.03L112.38-37.03ZM80.74-38.91L80.74-34.80L95.39-34.80L95.39-34.80Q95.39-37.56 95.24-39.70L95.24-39.70L95.24-39.70Q95.10-41.84 94.37-43.30L94.37-43.30L94.37-43.30Q93.63-44.77 92.08-45.53L92.08-45.53L92.08-45.53Q90.53-46.29 87.66-46.29L87.66-46.29L87.66-46.29Q85.25-46.29 83.88-45.53L83.88-45.53L83.88-45.53Q82.50-44.77 81.80-43.62L81.80-43.62L81.80-43.62Q81.09-42.48 80.92-41.19L80.92-41.19L80.92-41.19Q80.74-39.90 80.74-38.91L80.74-38.91ZM162.42-49.80L162.42-49.80L162.42-49.80Q162.42-45.23 160.17-43.13L160.17-43.13L160.17-43.13Q157.91-41.02 153.75-41.02L153.75-41.02L153.75-41.02Q153.16-41.02 152.08-40.93L152.08-40.93L152.08-40.93Q151.00-40.84 149.77-40.46L149.77-40.46L149.77-40.46Q148.54-40.08 147.28-39.35L147.28-39.35L147.28-39.35Q146.02-38.61 144.96-37.35L144.96-37.35L144.96-37.35Q143.91-36.09 143.26-34.16L143.26-34.16L143.26-34.16Q142.62-32.23 142.62-29.53L142.62-29.53L142.62-12.77L142.62-12.77Q142.62-10.37 142.35-8.09L142.35-8.09L142.35-8.09Q142.09-5.80 141.15-4.01L141.15-4.01L141.15-4.01Q140.21-2.23 138.46-1.11L138.46-1.11L138.46-1.11Q136.70 0 133.71 0L133.71 0L133.71 0Q130.78 0 129.08-1.11L129.08-1.11L129.08-1.11Q127.38-2.23 126.47-4.01L126.47-4.01L126.47-4.01Q125.57-5.80 125.30-8.09L125.30-8.09L125.30-8.09Q125.04-10.37 125.04-12.77L125.04-12.77L125.04-45.59L125.04-45.59Q125.04-48.05 125.30-50.36L125.30-50.36L125.30-50.36Q125.57-52.68 126.47-54.49L126.47-54.49L126.47-54.49Q127.38-56.31 129.08-57.39L129.08-57.39L129.08-57.39Q130.78-58.48 133.71-58.48L133.71-58.48L133.71-58.48Q136.70-58.48 138.31-57.16L138.31-57.16L138.31-57.16Q139.92-55.84 140.68-53.76L140.68-53.76L140.68-53.76Q141.45-51.68 141.56-49.13L141.56-49.13L141.56-49.13Q141.68-46.58 141.68-44.18L141.68-44.18L142.62-44.18L142.62-44.18Q143.44-47.46 144.79-50.13L144.79-50.13L144.79-50.13Q146.13-52.79 147.77-54.64L147.77-54.64L147.77-54.64Q149.41-56.48 151.29-57.48L151.29-57.48L151.29-57.48Q153.16-58.48 155.04-58.48L155.04-58.48L155.04-58.48Q157.32-58.48 158.76-57.98L158.76-57.98L158.76-57.98Q160.20-57.48 161.02-56.43L161.02-56.43L161.02-56.43Q161.84-55.37 162.13-53.73L162.13-53.73L162.13-53.73Q162.42-52.09 162.42-49.80ZM208.83-49.80L208.83-49.80L208.83-49.80Q208.83-45.23 206.57-43.13L206.57-43.13L206.57-43.13Q204.32-41.02 200.16-41.02L200.16-41.02L200.16-41.02Q199.57-41.02 198.49-40.93L198.49-40.93L198.49-40.93Q197.40-40.84 196.17-40.46L196.17-40.46L196.17-40.46Q194.94-40.08 193.68-39.35L193.68-39.35L193.68-39.35Q192.42-38.61 191.37-37.35L191.37-37.35L191.37-37.35Q190.31-36.09 189.67-34.16L189.67-34.16L189.67-34.16Q189.02-32.23 189.02-29.53L189.02-29.53L189.02-12.77L189.02-12.77Q189.02-10.37 188.76-8.09L188.76-8.09L188.76-8.09Q188.50-5.80 187.56-4.01L187.56-4.01L187.56-4.01Q186.62-2.23 184.86-1.11L184.86-1.11L184.86-1.11Q183.11 0 180.12 0L180.12 0L180.12 0Q177.19 0 175.49-1.11L175.49-1.11L175.49-1.11Q173.79-2.23 172.88-4.01L172.88-4.01L172.88-4.01Q171.97-5.80 171.71-8.09L171.71-8.09L171.71-8.09Q171.45-10.37 171.45-12.77L171.45-12.77L171.45-45.59L171.45-45.59Q171.45-48.05 171.71-50.36L171.71-50.36L171.71-50.36Q171.97-52.68 172.88-54.49L172.88-54.49L172.88-54.49Q173.79-56.31 175.49-57.39L175.49-57.39L175.49-57.39Q177.19-58.48 180.12-58.48L180.12-58.48L180.12-58.48Q183.11-58.48 184.72-57.16L184.72-57.16L184.72-57.16Q186.33-55.84 187.09-53.76L187.09-53.76L187.09-53.76Q187.85-51.68 187.97-49.13L187.97-49.13L187.97-49.13Q188.09-46.58 188.09-44.18L188.09-44.18L189.02-44.18L189.02-44.18Q189.84-47.46 191.19-50.13L191.19-50.13L191.19-50.13Q192.54-52.79 194.18-54.64L194.18-54.64L194.18-54.64Q195.82-56.48 197.70-57.48L197.70-57.48L197.70-57.48Q199.57-58.48 201.45-58.48L201.45-58.48L201.45-58.48Q203.73-58.48 205.17-57.98L205.17-57.98L205.17-57.98Q206.60-57.48 207.42-56.43L207.42-56.43L207.42-56.43Q208.24-55.37 208.54-53.73L208.54-53.73L208.54-53.73Q208.83-52.09 208.83-49.80ZM263.55-45.23L263.55-13.24L263.55-13.24Q263.55-10.78 263.38-8.41L263.38-8.41L263.38-8.41Q263.20-6.04 262.32-4.16L262.32-4.16L262.32-4.16Q261.45-2.29 259.69-1.14L259.69-1.14L259.69-1.14Q257.93 0 254.77 0L254.77 0L254.77 0Q251.54 0 249.73-1.08L249.73-1.08L249.73-1.08Q247.91-2.17 247.03-3.72L247.03-3.72L247.03-3.72Q246.15-5.27 245.95-6.97L245.95-6.97L245.95-6.97Q245.74-8.67 245.74-9.84L245.74-9.84L245.74-9.84Q245.21-8.14 244.25-6.39L244.25-6.39L244.25-6.39Q243.28-4.63 241.76-3.22L241.76-3.22L241.76-3.22Q240.23-1.82 238.10-0.91L238.10-0.91L238.10-0.91Q235.96 0 233.09 0L233.09 0L233.09 0Q229.86 0 226.64-1.05L226.64-1.05L226.64-1.05Q223.42-2.11 220.84-4.57L220.84-4.57L220.84-4.57Q218.26-7.03 216.65-10.99L216.65-10.99L216.65-10.99Q215.04-14.94 215.04-20.74L215.04-20.74L215.04-37.73L215.04-37.73Q215.04-43.59 216.65-47.55L216.65-47.55L216.65-47.55Q218.26-51.50 220.84-53.94L220.84-53.94L220.84-53.94Q223.42-56.37 226.64-57.42L226.64-57.42L226.64-57.42Q229.86-58.48 233.09-58.48L233.09-58.48L233.09-58.48Q235.96-58.48 238.10-57.60L238.10-57.60L238.10-57.60Q240.23-56.72 241.76-55.31L241.76-55.31L241.76-55.31Q243.28-53.91 244.25-52.15L244.25-52.15L244.25-52.15Q245.21-50.39 245.74-48.63L245.74-48.63L245.74-48.63Q245.74-51.56 246.56-53.50L246.56-53.50L246.56-53.50Q247.38-55.43 248.67-56.57L248.67-56.57L248.67-56.57Q249.96-57.71 251.57-58.15L251.57-58.15L251.57-58.15Q253.18-58.59 254.77-58.59L254.77-58.59L254.77-58.59Q257.70-58.59 259.45-57.45L259.45-57.45L259.45-57.45Q261.21-56.31 262.12-54.46L262.12-54.46L262.12-54.46Q263.03-52.62 263.29-50.19L263.29-50.19L263.29-50.19Q263.55-47.75 263.55-45.23L263.55-45.23ZM233.09-36.45L233.09-22.27L233.09-22.27Q233.09-20.68 233.20-19.16L233.20-19.16L233.20-19.16Q233.32-17.64 233.85-16.41L233.85-16.41L233.85-16.41Q234.38-15.18 235.40-14.44L235.40-14.44L235.40-14.44Q236.43-13.71 238.24-13.71L238.24-13.71L238.24-13.71Q240.53-13.71 241.96-14.74L241.96-14.74L241.96-14.74Q243.40-15.76 244.22-17.90L244.22-17.90L244.22-17.90Q245.04-20.04 245.36-23.29L245.36-23.29L245.36-23.29Q245.68-26.54 245.74-31.05L245.74-31.05L245.74-31.05Q245.74-32.87 245.42-35.24L245.42-35.24L245.42-35.24Q245.10-37.62 244.28-39.73L244.28-39.73L244.28-39.73Q243.46-41.84 241.99-43.30L241.99-43.30L241.99-43.30Q240.53-44.77 238.24-44.77L238.24-44.77L238.24-44.77Q236.43-44.77 235.40-44.03L235.40-44.03L235.40-44.03Q234.38-43.30 233.85-42.13L233.85-42.13L233.85-42.13Q233.32-40.96 233.20-39.46L233.20-39.46L233.20-39.46Q233.09-37.97 233.09-36.45L233.09-36.45ZM293.20-61.41L293.20-61.41L293.20-61.41Q293.26-58.95 294.64-56.98L294.64-56.98L294.64-56.98Q296.02-55.02 298.27-53.26L298.27-53.26L298.27-53.26Q300.53-51.50 303.40-49.83L303.40-49.83L303.40-49.83Q306.27-48.16 309.29-46.32L309.29-46.32L309.29-46.32Q312.30-44.47 315.18-42.30L315.18-42.30L315.18-42.30Q318.05-40.14 320.33-37.38L320.33-37.38L320.33-37.38Q322.62-34.63 324.02-31.17L324.02-31.17L324.02-31.17Q325.43-27.71 325.55-23.32L325.55-23.32L325.55-22.85L325.55-22.85Q325.55-18.05 324.38-14.47L324.38-14.47L324.38-14.47Q323.20-10.90 321.27-8.32L321.27-8.32L321.27-8.32Q319.34-5.74 316.76-4.07L316.76-4.07L316.76-4.07Q314.18-2.40 311.34-1.41L311.34-1.41L311.34-1.41Q308.50-0.41 305.60 0L305.60 0L305.60 0Q302.70 0.41 300.12 0.47L300.12 0.47L299.53 0.47L299.53 0.47Q294.55 0.47 290.80-0.53L290.80-0.53L290.80-0.53Q287.05-1.52 284.36-3.19L284.36-3.19L284.36-3.19Q281.66-4.86 279.87-7.03L279.87-7.03L279.87-7.03Q278.09-9.20 277.03-11.51L277.03-11.51L277.03-11.51Q275.98-13.83 275.51-16.11L275.51-16.11L275.51-16.11Q275.04-18.40 275.04-20.39L275.04-20.39L275.04-20.39Q275.04-22.44 275.74-23.96L275.74-23.96L275.74-23.96Q276.45-25.49 277.59-26.46L277.59-26.46L277.59-26.46Q278.73-27.42 280.22-27.89L280.22-27.89L280.22-27.89Q281.72-28.36 283.36-28.36L283.36-28.36L283.36-28.36Q284.88-28.36 286.49-27.89L286.49-27.89L286.49-27.89Q288.11-27.42 289.42-26.46L289.42-26.46L289.42-26.46Q290.74-25.49 291.59-23.99L291.59-23.99L291.59-23.99Q292.44-22.50 292.50-20.51L292.50-20.51L292.50-20.51Q292.62-16.11 294.49-14.50L294.49-14.50L294.49-14.50Q296.37-12.89 299.88-12.89L299.88-12.89L299.88-12.89Q301.64-12.95 303.13-13.33L303.13-13.33L303.13-13.33Q304.63-13.71 305.68-14.68L305.68-14.68L305.68-14.68Q306.74-15.64 307.35-17.26L307.35-17.26L307.35-17.26Q307.97-18.87 307.97-21.33L307.97-21.33L307.97-21.33Q307.97-24.38 306.59-26.84L306.59-26.84L306.59-26.84Q305.21-29.30 302.99-31.41L302.99-31.41L302.99-31.41Q300.76-33.52 297.89-35.42L297.89-35.42L297.89-35.42Q295.02-37.32 292.03-39.23L292.03-39.23L292.03-39.23Q289.04-41.13 286.20-43.21L286.20-43.21L286.20-43.21Q283.36-45.29 281.07-47.75L281.07-47.75L281.07-47.75Q278.79-50.21 277.41-53.20L277.41-53.20L277.41-53.20Q276.04-56.19 275.98-60L275.98-60L275.98-60.94L275.98-60.94Q276.04-67.21 277.65-71.37L277.65-71.37L277.65-71.37Q279.26-75.53 282.39-77.99L282.39-77.99L282.39-77.99Q285.53-80.45 290.10-81.47L290.10-81.47L290.10-81.47Q294.67-82.50 300.59-82.50L300.59-82.50L302.11-82.50L302.11-82.50Q307.50-82.50 311.25-81.33L311.25-81.33L311.25-81.33Q315-80.16 317.49-78.34L317.49-78.34L317.49-78.34Q319.98-76.52 321.42-74.24L321.42-74.24L321.42-74.24Q322.85-71.95 323.55-69.73L323.55-69.73L323.55-69.73Q324.26-67.50 324.43-65.57L324.43-65.57L324.43-65.57Q324.61-63.63 324.61-62.46L324.61-62.46L324.61-62.46Q324.61-60.70 323.94-59.27L323.94-59.27L323.94-59.27Q323.26-57.83 322.12-56.84L322.12-56.84L322.12-56.84Q320.98-55.84 319.42-55.28L319.42-55.28L319.42-55.28Q317.87-54.73 316.05-54.73L316.05-54.73L316.05-54.73Q314.65-54.73 313.24-55.28L313.24-55.28L313.24-55.28Q311.84-55.84 310.72-56.72L310.72-56.72L310.72-56.72Q309.61-57.60 308.91-58.74L308.91-58.74L308.91-58.74Q308.20-59.88 308.20-61.05L308.20-61.05L308.20-61.05Q308.20-65.86 306.47-67.73L306.47-67.73L306.47-67.73Q304.75-69.61 301.41-69.61L301.41-69.61L301.41-69.61Q299.82-69.61 298.33-69.43L298.33-69.43L298.33-69.43Q296.84-69.26 295.69-68.47L295.69-68.47L295.69-68.47Q294.55-67.68 293.88-66.04L293.88-66.04L293.88-66.04Q293.20-64.39 293.20-61.41ZM341.13-58.59L344.41-58.59L344.41-68.91L344.41-68.91Q344.41-71.37 344.68-73.71L344.68-73.71L344.68-73.71Q344.94-76.05 345.88-77.90L345.88-77.90L345.88-77.90Q346.82-79.75 348.57-80.89L348.57-80.89L348.57-80.89Q350.33-82.03 353.32-82.03L353.32-82.03L353.32-82.03Q356.25-82.03 358.01-80.89L358.01-80.89L358.01-80.89Q359.77-79.75 360.67-77.90L360.67-77.90L360.67-77.90Q361.58-76.05 361.85-73.71L361.85-73.71L361.85-73.71Q362.11-71.37 362.11-68.91L362.11-68.91L362.11-58.59L366.91-58.59L366.91-58.59Q368.44-58.59 369.96-58.45L369.96-58.45L369.96-58.45Q371.48-58.30 372.69-57.60L372.69-57.60L372.69-57.60Q373.89-56.89 374.62-55.49L374.62-55.49L374.62-55.49Q375.35-54.08 375.35-51.56L375.35-51.56L375.35-51.56Q375.35-49.16 374.62-47.75L374.62-47.75L374.62-47.75Q373.89-46.35 372.69-45.64L372.69-45.64L372.69-45.64Q371.48-44.94 369.96-44.74L369.96-44.74L369.96-44.74Q368.44-44.53 366.91-44.53L366.91-44.53L362.11-44.53L362.11-24.02L362.11-24.02Q362.11-22.85 362.20-21.53L362.20-21.53L362.20-21.53Q362.29-20.21 362.81-19.10L362.81-19.10L362.81-19.10Q363.34-17.99 364.39-17.26L364.39-17.26L364.39-17.26Q365.45-16.52 367.38-16.52L367.38-16.52L367.38-16.52Q369.49-16.52 370.99-16.20L370.99-16.20L370.99-16.20Q372.48-15.88 373.45-15.06L373.45-15.06L373.45-15.06Q374.41-14.24 374.88-12.77L374.88-12.77L374.88-12.77Q375.35-11.31 375.35-9.02L375.35-9.02L375.35-9.02Q375.35-6.68 374.27-4.98L374.27-4.98L374.27-4.98Q373.18-3.28 371.37-2.17L371.37-2.17L371.37-2.17Q369.55-1.05 367.15-0.53L367.15-0.53L367.15-0.53Q364.75 0 362.11 0L362.11 0L362.11 0Q357.95 0 354.99-0.88L354.99-0.88L354.99-0.88Q352.03-1.76 350.07-3.37L350.07-3.37L350.07-3.37Q348.11-4.98 346.96-7.24L346.96-7.24L346.96-7.24Q345.82-9.49 345.26-12.30L345.26-12.30L345.26-12.30Q344.71-15.12 344.56-18.37L344.56-18.37L344.56-18.37Q344.41-21.62 344.41-25.20L344.41-25.20L344.41-44.53L341.13-44.53L341.13-44.53Q339.61-44.53 338.12-44.74L338.12-44.74L338.12-44.74Q336.62-44.94 335.45-45.64L335.45-45.64L335.45-45.64Q334.28-46.35 333.54-47.75L333.54-47.75L333.54-47.75Q332.81-49.16 332.81-51.56L332.81-51.56L332.81-51.56Q332.81-54.08 333.54-55.49L333.54-55.49L333.54-55.49Q334.28-56.89 335.45-57.60L335.45-57.60L335.45-57.60Q336.62-58.30 338.12-58.45L338.12-58.45L338.12-58.45Q339.61-58.59 341.13-58.59L341.13-58.59ZM384.84-22.03L384.84-36.56L384.84-36.56Q384.84-41.95 386.31-45.70L386.31-45.70L386.31-45.70Q387.77-49.45 390.09-51.97L390.09-51.97L390.09-51.97Q392.40-54.49 395.24-55.90L395.24-55.90L395.24-55.90Q398.09-57.30 400.84-58.01L400.84-58.01L400.84-58.01Q403.59-58.71 405.97-58.89L405.97-58.89L405.97-58.89Q408.34-59.06 409.69-59.06L409.69-59.06L409.69-59.06Q411.04-59.06 413.38-58.89L413.38-58.89L413.38-58.89Q415.72-58.71 418.39-58.01L418.39-58.01L418.39-58.01Q421.05-57.30 423.78-55.90L423.78-55.90L423.78-55.90Q426.50-54.49 428.70-51.97L428.70-51.97L428.70-51.97Q430.90-49.45 432.30-45.70L432.30-45.70L432.30-45.70Q433.71-41.95 433.71-36.56L433.71-36.56L433.71-22.03L433.71-22.03Q433.71-16.64 432.30-12.89L432.30-12.89L432.30-12.89Q430.90-9.14 428.70-6.62L428.70-6.62L428.70-6.62Q426.50-4.10 423.78-2.70L423.78-2.70L423.78-2.70Q421.05-1.29 418.39-0.59L418.39-0.59L418.39-0.59Q415.72 0.12 413.38 0.29L413.38 0.29L413.38 0.29Q411.04 0.47 409.69 0.47L409.69 0.47L409.69 0.47Q408.34 0.47 405.97 0.29L405.97 0.29L405.97 0.29Q403.59 0.12 400.84-0.59L400.84-0.59L400.84-0.59Q398.09-1.29 395.24-2.70L395.24-2.70L395.24-2.70Q392.40-4.10 390.09-6.62L390.09-6.62L390.09-6.62Q387.77-9.14 386.31-12.89L386.31-12.89L386.31-12.89Q384.84-16.64 384.84-22.03L384.84-22.03ZM402.89-39.14L402.89-17.93L402.89-17.93Q402.95-16.23 403.71-14.94L403.71-14.94L403.71-14.94Q404.36-13.77 405.73-12.86L405.73-12.86L405.73-12.86Q407.11-11.95 409.69-11.95L409.69-11.95L409.69-11.95Q412.15-11.95 413.47-12.86L413.47-12.86L413.47-12.86Q414.79-13.77 415.43-14.94L415.43-14.94L415.43-14.94Q416.13-16.23 416.25-17.93L416.25-17.93L416.25-39.14L416.25-39.14Q416.13-40.90 415.43-42.36L415.43-42.36L415.43-42.36Q414.79-43.54 413.47-44.56L413.47-44.56L413.47-44.56Q412.15-45.59 409.69-45.59L409.69-45.59L409.69-45.59Q407.11-45.59 405.73-44.56L405.73-44.56L405.73-44.56Q404.36-43.54 403.71-42.36L403.71-42.36L403.71-42.36Q402.95-40.90 402.89-39.14L402.89-39.14ZM483.40-49.80L483.40-49.80L483.40-49.80Q483.40-45.23 481.14-43.13L481.14-43.13L481.14-43.13Q478.89-41.02 474.73-41.02L474.73-41.02L474.73-41.02Q474.14-41.02 473.06-40.93L473.06-40.93L473.06-40.93Q471.97-40.84 470.74-40.46L470.74-40.46L470.74-40.46Q469.51-40.08 468.25-39.35L468.25-39.35L468.25-39.35Q466.99-38.61 465.94-37.35L465.94-37.35L465.94-37.35Q464.88-36.09 464.24-34.16L464.24-34.16L464.24-34.16Q463.59-32.23 463.59-29.53L463.59-29.53L463.59-12.77L463.59-12.77Q463.59-10.37 463.33-8.09L463.33-8.09L463.33-8.09Q463.07-5.80 462.13-4.01L462.13-4.01L462.13-4.01Q461.19-2.23 459.43-1.11L459.43-1.11L459.43-1.11Q457.68 0 454.69 0L454.69 0L454.69 0Q451.76 0 450.06-1.11L450.06-1.11L450.06-1.11Q448.36-2.23 447.45-4.01L447.45-4.01L447.45-4.01Q446.54-5.80 446.28-8.09L446.28-8.09L446.28-8.09Q446.02-10.37 446.02-12.77L446.02-12.77L446.02-45.59L446.02-45.59Q446.02-48.05 446.28-50.36L446.28-50.36L446.28-50.36Q446.54-52.68 447.45-54.49L447.45-54.49L447.45-54.49Q448.36-56.31 450.06-57.39L450.06-57.39L450.06-57.39Q451.76-58.48 454.69-58.48L454.69-58.48L454.69-58.48Q457.68-58.48 459.29-57.16L459.29-57.16L459.29-57.16Q460.90-55.84 461.66-53.76L461.66-53.76L461.66-53.76Q462.42-51.68 462.54-49.13L462.54-49.13L462.54-49.13Q462.66-46.58 462.66-44.18L462.66-44.18L463.59-44.18L463.59-44.18Q464.41-47.46 465.76-50.13L465.76-50.13L465.76-50.13Q467.11-52.79 468.75-54.64L468.75-54.64L468.75-54.64Q470.39-56.48 472.27-57.48L472.27-57.48L472.27-57.48Q474.14-58.48 476.02-58.48L476.02-58.48L476.02-58.48Q478.30-58.48 479.74-57.98L479.74-57.98L479.74-57.98Q481.17-57.48 481.99-56.43L481.99-56.43L481.99-56.43Q482.81-55.37 483.11-53.73L483.11-53.73L483.11-53.73Q483.40-52.09 483.40-49.80ZM539.53-37.03L539.53-33.40L539.53-33.40Q539.53-32.46 539.41-31.20L539.41-31.20L539.41-31.20Q539.30-29.94 538.51-28.80L538.51-28.80L538.51-28.80Q537.71-27.66 536.02-26.84L536.02-26.84L536.02-26.84Q534.32-26.02 531.21-26.02L531.21-26.02L507.89-26.02L507.89-20.39L507.89-20.39Q507.89-18.98 508.24-17.46L508.24-17.46L508.24-17.46Q508.59-15.94 509.44-14.65L509.44-14.65L509.44-14.65Q510.29-13.36 511.70-12.54L511.70-12.54L511.70-12.54Q513.11-11.72 515.16-11.72L515.16-11.72L515.16-11.72Q517.50-11.72 518.76-12.28L518.76-12.28L518.76-12.28Q520.02-12.83 520.75-13.65L520.75-13.65L520.75-13.65Q521.48-14.47 522.07-15.41L522.07-15.41L522.07-15.41Q522.66-16.35 523.62-17.17L523.62-17.17L523.62-17.17Q524.59-17.99 526.32-18.54L526.32-18.54L526.32-18.54Q528.05-19.10 531.09-19.10L531.09-19.10L531.09-19.10Q532.56-19.10 533.94-18.87L533.94-18.87L533.94-18.87Q535.31-18.63 536.37-17.99L536.37-17.99L536.37-17.99Q537.42-17.34 538.07-16.20L538.07-16.20L538.07-16.20Q538.71-15.06 538.71-13.24L538.71-13.24L538.71-13.24Q538.71-9.43 536.31-6.88L536.31-6.88L536.31-6.88Q533.91-4.34 530.27-2.81L530.27-2.81L530.27-2.81Q526.64-1.29 522.39-0.64L522.39-0.64L522.39-0.64Q518.14 0 514.45 0L514.45 0L514.45 0Q509.59-0.06 505.20-1.23L505.20-1.23L505.20-1.23Q500.80-2.40 497.43-4.98L497.43-4.98L497.43-4.98Q494.06-7.56 492.07-11.72L492.07-11.72L492.07-11.72Q490.08-15.88 490.08-21.91L490.08-21.91L490.08-35.63L490.08-35.63Q490.08-41.19 491.40-45.06L491.40-45.06L491.40-45.06Q492.71-48.93 494.82-51.50L494.82-51.50L494.82-51.50Q496.93-54.08 499.57-55.52L499.57-55.52L499.57-55.52Q502.21-56.95 504.90-57.66L504.90-57.66L504.90-57.66Q507.60-58.36 510.03-58.54L510.03-58.54L510.03-58.54Q512.46-58.71 514.22-58.71L514.22-58.71L514.22-58.71Q520.14-58.71 524.33-57.66L524.33-57.66L524.33-57.66Q528.52-56.60 531.33-54.90L531.33-54.90L531.33-54.90Q534.14-53.20 535.78-50.98L535.78-50.98L535.78-50.98Q537.42-48.75 538.24-46.38L538.24-46.38L538.24-46.38Q539.06-44.00 539.30-41.57L539.30-41.57L539.30-41.57Q539.53-39.14 539.53-37.03L539.53-37.03ZM507.89-38.91L507.89-34.80L522.54-34.80L522.54-34.80Q522.54-37.56 522.39-39.70L522.39-39.70L522.39-39.70Q522.25-41.84 521.51-43.30L521.51-43.30L521.51-43.30Q520.78-44.77 519.23-45.53L519.23-45.53L519.23-45.53Q517.68-46.29 514.80-46.29L514.80-46.29L514.80-46.29Q512.40-46.29 511.03-45.53L511.03-45.53L511.03-45.53Q509.65-44.77 508.95-43.62L508.95-43.62L508.95-43.62Q508.24-42.48 508.07-41.19L508.07-41.19L508.07-41.19Q507.89-39.90 507.89-38.91L507.89-38.91Z" fill="#ccc"></path></g></g><style>text {
  font-size: 64px;
  font-family: Arial Black;
  dominant-baseline: central;
  text-anchor: middle;
}</style></svg>